<svg xmlns="http://www.w3.org/2000/svg" viewBox="0 0 1200 630" width="1200" height="630">
  <defs>
    <pattern id="grid" width="48" height="48" patternUnits="userSpaceOnUse">
      <path d="M 48 0 L 0 0 0 48" fill="none" stroke="rgba(247,245,240,0.06)" stroke-width="1"/>
    </pattern>
    <linearGradient id="fade" x1="0" y1="0" x2="0" y2="1">
      <stop offset="0" stop-color="#0E1015"/>
      <stop offset="1" stop-color="#15181F"/>
    </linearGradient>
  </defs>
  <rect width="1200" height="630" fill="url(#fade)"/>
  <rect width="1200" height="630" fill="url(#grid)"/>

  <g transform="translate(80,90)">
    <rect x="0" y="0" width="52" height="52" fill="none" stroke="#E8A33D" stroke-width="2"/>
    <text x="26" y="35" font-family="'Space Mono', monospace" font-size="18" font-weight="700" fill="#E8A33D" text-anchor="middle">TBN</text>
    <text x="72" y="24" font-family="'Space Mono', monospace" font-size="15" font-weight="700" fill="#F7F5F0">THE BINARY BRAIN NETWORK</text>
    <text x="72" y="46" font-family="'Space Mono', monospace" font-size="12" fill="#8A92A0">/ PASS</text>
  </g>

  <g transform="translate(80,200)">
    <rect x="0" y="0" width="290" height="34" fill="rgba(61,122,92,0.18)"/>
    <circle cx="20" cy="17" r="5" fill="#3D7A5C"/>
    <circle cx="20" cy="17" r="10" fill="none" stroke="rgba(61,122,92,0.35)" stroke-width="4"/>
    <text x="40" y="22" font-family="'Space Mono', monospace" font-size="12" font-weight="700" fill="#6FCB9A" letter-spacing="2">IN TRIALS · RESTAURANTS INDIA</text>
  </g>

  <text x="80" y="325" font-family="Inter, sans-serif" font-size="70" font-weight="800" fill="#F7F5F0" letter-spacing="-1.8">Your restaurant. Your data.</text>
  <text x="80" y="400" font-family="Inter, sans-serif" font-size="70" font-weight="800" fill="#F7F5F0" letter-spacing="-1.8"><tspan fill="#E8A33D" font-style="italic">Your rules.</tspan></text>

  <text x="80" y="470" font-family="Inter, sans-serif" font-size="22" fill="#8A92A0">Offline-first POS · GST · UPI QR · Staff &amp; payroll.</text>
  <text x="80" y="500" font-family="Inter, sans-serif" font-size="22" fill="#8A92A0">30-day free trial · Free setup &amp; training.</text>

  <!-- Right: KOT-style decorative panel -->
  <g transform="translate(830,140) rotate(-2)">
    <rect x="0" y="0" width="260" height="380" fill="#F7F5F0"/>
    <rect x="10" y="10" width="240" height="360" fill="none" stroke="rgba(14,16,21,0.2)" stroke-width="1" stroke-dasharray="3,3"/>
    <text x="130" y="46" font-family="'Space Mono', monospace" font-size="13" font-weight="700" fill="#0E1015" text-anchor="middle">KOT · KITCHEN</text>
    <line x1="30" y1="60" x2="230" y2="60" stroke="rgba(14,16,21,0.25)" stroke-dasharray="2,2"/>
    <g font-family="'Space Mono', monospace" font-size="9" fill="#5A6270">
      <text x="30" y="82">KOT #0074</text>
      <text x="230" y="82" text-anchor="end">17-JUN-26</text>
      <text x="30" y="98">TABLE 07 · AC ROOM</text>
      <text x="230" y="98" text-anchor="end">DINE-IN</text>
    </g>
    <line x1="30" y1="112" x2="230" y2="112" stroke="rgba(14,16,21,0.25)" stroke-dasharray="2,2"/>
    <g font-family="'Space Mono', monospace" font-size="12" font-weight="700" fill="#0E1015">
      <text x="30" y="142">Paneer Butter Masala</text><text x="230" y="142" text-anchor="end">×1</text>
      <text x="30" y="168">Butter Naan</text><text x="230" y="168" text-anchor="end">×4</text>
      <text x="30" y="192" font-size="10" font-style="italic" fill="#5A6270">No onion</text>
      <text x="30" y="216">Veg Biryani</text><text x="230" y="216" text-anchor="end">×2</text>
      <text x="30" y="242">Gulab Jamun</text><text x="230" y="242" text-anchor="end">×3</text>
    </g>
    <line x1="30" y1="262" x2="230" y2="262" stroke="rgba(14,16,21,0.25)" stroke-dasharray="2,2"/>
    <text x="130" y="290" font-family="'Space Mono', monospace" font-size="10" fill="#5A6270" text-anchor="middle">SERVER · SUMIT · PAX 4</text>
    <rect x="10" y="-14" width="94" height="24" fill="#E8A33D"/>
    <text x="57" y="2" font-family="'Space Mono', monospace" font-size="11" font-weight="700" fill="#0E1015" text-anchor="middle">KOT · KITCHEN</text>
  </g>

  <line x1="80" y1="555" x2="1120" y2="555" stroke="rgba(247,245,240,0.1)" stroke-width="1"/>
  <text x="80" y="590" font-family="'Space Mono', monospace" font-size="14" fill="#5A6270" letter-spacing="2">TBN.TBBN.IN/PASS</text>
  <text x="1120" y="590" font-family="'Space Mono', monospace" font-size="14" fill="#5A6270" letter-spacing="2" text-anchor="end">WHATSAPP +91 99879 91072</text>
</svg>
